<svg width="24" height="30" viewBox="0 0 24 30" fill="none" xmlns="http://www.w3.org/2000/svg">
<path d="M17.8744 0.0147822C17.8116 -0.0553718 15.5501 0.0424746 13.582 2.17848C11.614 4.31264 11.9168 6.76064 11.9611 6.82341C12.0054 6.88618 14.7673 6.98403 16.5304 4.50095C18.2934 2.01786 17.9371 0.0867824 17.8744 0.0147822ZM23.9925 21.6758C23.9039 21.4985 19.7002 19.3976 20.0916 15.3582C20.483 11.317 23.1839 10.2093 23.2264 10.0893C23.2688 9.96927 22.1242 8.6308 20.9113 7.95326C20.0207 7.47557 19.0351 7.20189 18.0258 7.15203C17.8264 7.14649 17.1341 6.97665 15.7107 7.36618C14.7728 7.6228 12.659 8.45357 12.0774 8.4868C11.494 8.52003 9.75866 7.52311 7.89219 7.25911C6.69772 7.02834 5.43126 7.50096 4.5248 7.86465C3.62018 8.2265 1.89956 9.25665 0.695865 11.9945C-0.507831 14.7305 0.121709 19.0653 0.572172 20.413C1.02263 21.7588 1.72602 23.965 2.92233 25.5748C3.98572 27.3915 5.39618 28.6524 5.98511 29.0807C6.57403 29.509 8.23557 29.7933 9.38758 29.2044C10.3143 28.6358 11.987 28.309 12.6479 28.333C13.307 28.357 14.6067 28.6173 15.9377 29.3281C16.9919 29.6918 17.9888 29.5404 18.9876 29.1342C19.9864 28.7262 21.4319 27.1792 23.1193 24.0425C23.7599 22.5841 24.0516 21.7958 23.9925 21.6758Z" fill="black"/>
<path d="M17.8744 0.0147822C17.8116 -0.0553718 15.5501 0.0424746 13.582 2.17848C11.614 4.31264 11.9168 6.76064 11.9611 6.82341C12.0054 6.88618 14.7673 6.98403 16.5304 4.50095C18.2934 2.01786 17.9371 0.0867824 17.8744 0.0147822ZM23.9925 21.6758C23.9039 21.4985 19.7002 19.3976 20.0916 15.3582C20.483 11.317 23.1839 10.2093 23.2264 10.0893C23.2688 9.96927 22.1242 8.6308 20.9113 7.95326C20.0207 7.47557 19.0351 7.20189 18.0258 7.15203C17.8264 7.14649 17.1341 6.97665 15.7107 7.36618C14.7728 7.6228 12.659 8.45357 12.0774 8.4868C11.494 8.52003 9.75866 7.52311 7.89219 7.25911C6.69772 7.02834 5.43126 7.50096 4.5248 7.86465C3.62018 8.2265 1.89956 9.25665 0.695865 11.9945C-0.507831 14.7305 0.121709 19.0653 0.572172 20.413C1.02263 21.7588 1.72602 23.965 2.92233 25.5748C3.98572 27.3915 5.39618 28.6524 5.98511 29.0807C6.57403 29.509 8.23557 29.7933 9.38758 29.2044C10.3143 28.6358 11.987 28.309 12.6479 28.333C13.307 28.357 14.6067 28.6173 15.9377 29.3281C16.9919 29.6918 17.9888 29.5404 18.9876 29.1342C19.9864 28.7262 21.4319 27.1792 23.1193 24.0425C23.7599 22.5841 24.0516 21.7958 23.9925 21.6758Z" fill="black"/>
</svg>
