<svg width="22" height="17" viewBox="0 0 22 17" fill="none" xmlns="http://www.w3.org/2000/svg">
<path d="M0 6.182V12.375C0 13.469 0.434597 14.5182 1.20818 15.2918C1.98177 16.0654 3.03098 16.5 4.125 16.5H17.875C18.969 16.5 20.0182 16.0654 20.7918 15.2918C21.5654 14.5182 22 13.469 22 12.375V6.182L11.5637 10.879C11.3865 10.9587 11.1943 10.9999 11 10.9999C10.8057 10.9999 10.6135 10.9587 10.4363 10.879L0 6.182ZM0.10175 3.212L11 8.118L21.8983 3.212C21.6912 2.29976 21.1802 1.48497 20.4492 0.901338C19.7182 0.317702 18.8104 -0.000126358 17.875 3.76845e-08H4.125C3.18956 -0.000126358 2.28185 0.317702 1.5508 0.901338C0.819758 1.48497 0.308795 2.29976 0.10175 3.212Z" fill="#DDB47A"/>
</svg>
