<svg width="24" height="40" viewBox="0 0 24 40" fill="none" xmlns="http://www.w3.org/2000/svg">
<path d="M24 1.10381C24 0.814483 23.8851 0.537006 23.6805 0.332421C23.4759 0.127836 23.1984 0.0129007 22.9091 0.0129007H17.4545C14.7079 -0.123919 12.0188 0.831937 9.97467 2.67162C7.93057 4.5113 6.69771 7.08526 6.54545 9.83108V15.722H1.09091C0.801582 15.722 0.524105 15.8369 0.31952 16.0415C0.114935 16.2461 0 16.5236 0 16.8129V22.4856C0 22.775 0.114935 23.0524 0.31952 23.257C0.524105 23.4616 0.801582 23.5765 1.09091 23.5765H6.54545V38.1947C6.54545 38.484 6.66039 38.7615 6.86497 38.9661C7.06956 39.1707 7.34704 39.2856 7.63636 39.2856H14.1818C14.4711 39.2856 14.7486 39.1707 14.9532 38.9661C15.1578 38.7615 15.2727 38.484 15.2727 38.1947V23.5765H20.9891C21.2317 23.58 21.4685 23.5025 21.6621 23.3563C21.8558 23.2101 21.9951 23.0035 22.0582 22.7693L23.6291 17.0965C23.6725 16.9353 23.6783 16.7663 23.6461 16.6026C23.614 16.4388 23.5446 16.2845 23.4434 16.1517C23.3423 16.019 23.212 15.9112 23.0626 15.8367C22.9132 15.7622 22.7487 15.7229 22.5818 15.722H15.2727V9.83108C15.327 9.29103 15.5806 8.7906 15.9841 8.4275C16.3875 8.06441 16.9118 7.86473 17.4545 7.86745H22.9091C23.1984 7.86745 23.4759 7.75251 23.6805 7.54793C23.8851 7.34334 24 7.06586 24 6.77654V1.10381Z" fill="#5771CE"/>
</svg>
