<svg width="134" height="28" viewBox="0 0 134 28" fill="none" xmlns="http://www.w3.org/2000/svg">
<path d="M2.83398 28C2.88086 27.5898 2.99219 27.2031 3.16797 26.8398C3.35547 26.4766 3.58398 26.1602 3.85352 25.8906C4.13477 25.6094 4.45117 25.3926 4.80273 25.2402C5.1543 25.0762 5.52344 24.9941 5.91016 24.9941H12.3613V20.7227L3.15039 16.1348C2.44727 15.7832 1.88477 15.25 1.46289 14.5352C1.04102 13.8203 0.830078 12.9297 0.830078 11.8633V5.81641C0.830078 5.19531 0.912109 4.61523 1.07617 4.07617C1.25195 3.52539 1.48633 3.05078 1.7793 2.65234C2.08398 2.24219 2.43555 1.92578 2.83398 1.70312C3.23242 1.46875 3.66016 1.35156 4.11719 1.35156H13.8379C14.2949 1.35156 14.7227 1.46875 15.1211 1.70312C15.5195 1.92578 15.8652 2.24219 16.1582 2.65234C16.4629 3.05078 16.7031 3.52539 16.8789 4.07617C17.0547 4.61523 17.1426 5.19531 17.1426 5.81641V11.0195H12.9414V4.35742H5.03125V12.6895L14.5586 17.5586C14.8633 17.7109 15.1387 17.9219 15.3848 18.1914C15.6309 18.4609 15.8418 18.7773 16.0176 19.1406C16.1934 19.4922 16.3281 19.8848 16.4219 20.3184C16.5156 20.752 16.5625 21.2031 16.5625 21.6719V23.5703C16.5625 24.1797 16.4746 24.7539 16.2988 25.293C16.123 25.832 15.8828 26.3008 15.5781 26.6992C15.2852 27.0977 14.9395 27.4141 14.541 27.6484C14.1426 27.8828 13.7148 28 13.2578 28H2.83398ZM23.875 14.5527C23.875 13.8496 23.9688 13.1934 24.1562 12.584C24.3555 11.9746 24.625 11.4473 24.9648 11.002C25.3047 10.5566 25.7031 10.2109 26.1602 9.96484C26.6289 9.70703 27.1328 9.57812 27.6719 9.57812H39.5195V24.9941H43.334C43.2871 25.4043 43.1699 25.7969 42.9824 26.1719C42.8066 26.5352 42.5781 26.8516 42.2969 27.1211C42.0273 27.3906 41.7168 27.6074 41.3652 27.7715C41.0137 27.9238 40.6445 28 40.2578 28H38.377C37.8027 28 37.2578 27.8066 36.7422 27.4199C36.2266 27.0215 35.7988 26.4883 35.459 25.8203C35.1191 26.4883 34.6914 27.0215 34.1758 27.4199C33.6602 27.8066 33.1152 28 32.541 28H27.2148C26.7578 28 26.3242 27.8828 25.9141 27.6484C25.5039 27.4141 25.1465 27.0977 24.8418 26.6992C24.5488 26.3008 24.3145 25.8379 24.1387 25.3105C23.9629 24.7715 23.875 24.1973 23.875 23.5879V14.5527ZM35.3359 24.9941V12.6016H28.0586V24.9941H35.3359ZM46.9023 9.5957H51.1035V16.5566L56.5352 10.9316C56.9102 10.498 57.2969 10.1641 57.6953 9.92969C58.1055 9.69531 58.5918 9.57812 59.1543 9.57812C59.623 9.57812 60.0742 9.69531 60.5078 9.92969C60.9414 10.1641 61.3223 10.4863 61.6504 10.8965C61.9785 11.2949 62.2363 11.7637 62.4238 12.3027C62.623 12.8418 62.7227 13.4219 62.7227 14.043V24.9766H66.2734C66.2266 25.3984 66.1094 25.791 65.9219 26.1543C65.7461 26.5176 65.5176 26.8398 65.2363 27.1211C64.9668 27.3906 64.6562 27.6074 64.3047 27.7715C63.9531 27.9238 63.584 28 63.1973 28H61.8262C61.3574 28 60.918 27.8828 60.5078 27.6484C60.1094 27.4141 59.7578 27.0977 59.4531 26.6992C59.1602 26.2891 58.9258 25.8145 58.75 25.2754C58.5742 24.7363 58.4863 24.1562 58.4863 23.5352V12.8477L51.1035 20.4414V28H46.9023V9.5957ZM74.8691 8.54102H79.0879C78.9824 8.79883 78.9004 9.05664 78.8418 9.31445C78.7949 9.56055 78.7598 9.76562 78.7363 9.92969C78.7012 10.3633 78.7715 10.7559 78.9473 11.1074C79.123 11.459 79.3574 11.7988 79.6504 12.127C79.9551 12.4434 80.3008 12.7598 80.6875 13.0762C81.0859 13.3926 81.4902 13.7266 81.9004 14.0781C82.3691 14.4531 82.8438 14.8867 83.3242 15.3789C83.8047 15.8594 84.2383 16.3926 84.625 16.9785C85.0117 17.5527 85.3223 18.168 85.5566 18.8242C85.8027 19.4688 85.9141 20.1426 85.8906 20.8457C85.8672 21.3379 85.7617 21.8125 85.5742 22.2695C85.3867 22.7148 85.1406 23.1191 84.8359 23.4824C84.5312 23.834 84.1738 24.1387 83.7637 24.3965C83.3652 24.6543 82.9434 24.8418 82.498 24.959H89.0371C88.873 25.416 88.6738 25.832 88.4395 26.207C88.2168 26.5703 87.959 26.8867 87.666 27.1562C87.3848 27.4258 87.0742 27.6367 86.7344 27.7891C86.3945 27.9297 86.043 28 85.6797 28H80.8633C80.3242 28 79.873 27.918 79.5098 27.7539C79.1582 27.5781 78.877 27.3496 78.666 27.0684C78.4668 26.7871 78.3262 26.4648 78.2441 26.1016C78.1738 25.7266 78.1562 25.3398 78.1914 24.9414C78.5664 24.8945 78.9355 24.7949 79.2988 24.6426C79.6621 24.4902 79.9844 24.2734 80.2656 23.9922C80.5586 23.6992 80.7988 23.3359 80.9863 22.9023C81.1855 22.4688 81.3086 21.9473 81.3555 21.3379C81.4023 20.8574 81.3555 20.4062 81.2148 19.9844C81.0742 19.5625 80.8867 19.1641 80.6523 18.7891C80.418 18.4141 80.1484 18.0566 79.8438 17.7168C79.5391 17.377 79.2402 17.0488 78.9473 16.7324C78.6426 16.334 78.3379 15.8535 78.0332 15.291C77.7285 14.7285 77.5117 14.043 77.3828 13.2344L71.8281 28H67.4863L74.8691 8.54102ZM91.7266 14.0605C91.7266 13.4395 91.8145 12.8594 91.9902 12.3203C92.166 11.7812 92.4004 11.3125 92.6934 10.9141C92.998 10.5039 93.3555 10.1816 93.7656 9.94727C94.1758 9.71289 94.6094 9.5957 95.0664 9.5957H104.4C104.857 9.5957 105.285 9.71289 105.684 9.94727C106.094 10.1816 106.451 10.5039 106.756 10.9141C107.061 11.3125 107.301 11.7812 107.477 12.3203C107.652 12.8594 107.74 13.4395 107.74 14.0605V19.9141H95.9277V24.9941H108.83C108.783 25.4043 108.666 25.7969 108.479 26.1719C108.303 26.5352 108.074 26.8516 107.793 27.1211C107.523 27.3906 107.213 27.6074 106.861 27.7715C106.51 27.9238 106.141 28 105.754 28H95.0664C94.6094 28 94.1758 27.8828 93.7656 27.6484C93.3555 27.4141 92.998 27.0977 92.6934 26.6992C92.4004 26.2891 92.166 25.8145 91.9902 25.2754C91.8145 24.7363 91.7266 24.1562 91.7266 23.5352V14.0605ZM103.539 17.4531V12.6016H95.9277V17.4531H103.539ZM114.156 0.0507812H118.357V11.5996C118.686 10.9668 119.09 10.4746 119.57 10.123C120.062 9.77148 120.596 9.5957 121.17 9.5957H126.461C126.918 9.5957 127.346 9.71289 127.744 9.94727C128.154 10.1816 128.512 10.5039 128.816 10.9141C129.121 11.3125 129.361 11.7812 129.537 12.3203C129.713 12.8594 129.801 13.4395 129.801 14.0605V24.9941H133.562C133.516 25.4043 133.398 25.7969 133.211 26.1719C133.035 26.5352 132.812 26.8516 132.543 27.1211C132.273 27.3906 131.963 27.6074 131.611 27.7715C131.26 27.9238 130.896 28 130.521 28H128.957C128.5 28 128.066 27.8828 127.656 27.6484C127.246 27.4141 126.889 27.0977 126.584 26.6992C126.279 26.2891 126.039 25.8145 125.863 25.2754C125.688 24.7363 125.6 24.1562 125.6 23.5352V12.6016H118.357V28H114.156V0.0507812Z" fill="#F69F21"/>
</svg>
