<svg width="13" height="13" viewBox="0 0 13 13" fill="none" xmlns="http://www.w3.org/2000/svg">
<path d="M8.838 0.714087L4.26928 5.28281C2.35754 7.19937 0.909807 9.52806 0.0369736 12.0905C-0.0046506 12.2117 -0.0112799 12.3422 0.0178459 12.467C0.0469717 12.5918 0.110674 12.7059 0.201649 12.7961L0.204036 12.7985C0.267344 12.8623 0.34264 12.9129 0.425591 12.9475C0.508543 12.9821 0.597513 12.9999 0.687385 13C0.763008 13 0.83811 12.9875 0.909696 12.9631C3.47214 12.0903 5.80082 10.6425 7.71736 8.73074L12.2859 4.16205C12.7431 3.70482 13 3.08469 13 2.43808C13 1.79146 12.7431 1.17133 12.2859 0.7141C12.0595 0.487704 11.7908 0.308116 11.495 0.185591C11.1992 0.063065 10.8821 1.27432e-06 10.562 0C9.91535 -2.57355e-06 9.29522 0.256862 8.838 0.714087ZM7.0962 8.10972C5.3694 9.83202 3.28957 11.1593 1.00016 11.9999C1.8408 9.71051 3.16803 7.63066 4.8903 5.90383L7.61188 3.18225L9.81776 5.38815L7.0962 8.10972ZM11.6649 3.54103L10.4388 4.76712L8.2329 2.56123L9.45901 1.33511C9.60378 1.18992 9.77575 1.0747 9.96508 0.996032C10.1544 0.917365 10.3574 0.876798 10.5624 0.87665C10.7675 0.876502 10.9705 0.916776 11.16 0.99517C11.3494 1.07356 11.5215 1.18854 11.6665 1.33351C11.8115 1.47849 11.9265 1.65063 12.0048 1.84008C12.0832 2.02953 12.1235 2.23258 12.1234 2.43761C12.1232 2.64264 12.0826 2.84562 12.004 3.03496C11.9253 3.22429 11.8101 3.39626 11.6649 3.54103Z" fill="white"/>
</svg>
