<svg width="13" height="17" viewBox="0 0 13 17" fill="none" xmlns="http://www.w3.org/2000/svg">
<path d="M8.33345 15.6169L8.73345 15.6188L8.33345 15.6169ZM4.66655 15.6169L5.06654 15.615L4.66655 15.6169ZM3.16373 10.8729L3.40658 10.5551L3.16373 10.8729ZM3.90075 11.7582L3.53033 11.9092L3.90075 11.7582ZM3.68119 11.3125L3.99898 11.0695L3.68119 11.3125ZM9.83628 10.8729L9.59342 10.5551L9.83628 10.8729ZM9.09925 11.7582L9.46967 11.9092L9.09925 11.7582ZM9.31881 11.3125L9.63659 11.5554L9.31881 11.3125ZM11.6 6.5C11.6 8.15314 10.8139 9.62253 9.59342 10.5551L10.0791 11.1908C11.4891 10.1134 12.4 8.41298 12.4 6.5H11.6ZM6.5 1.4C9.31665 1.4 11.6 3.68335 11.6 6.5H12.4C12.4 3.24152 9.75848 0.6 6.5 0.6V1.4ZM1.4 6.5C1.4 3.68335 3.68335 1.4 6.5 1.4V0.6C3.24152 0.6 0.6 3.24152 0.6 6.5H1.4ZM3.40658 10.5551C2.18612 9.62253 1.4 8.15314 1.4 6.5H0.6C0.6 8.41298 1.51086 10.1134 2.92087 11.1908L3.40658 10.5551ZM5.06654 15.615C5.05992 14.2363 4.78836 12.8762 4.27116 11.6072L3.53033 11.9092C4.00906 13.0837 4.26042 14.3427 4.26655 15.6188L5.06654 15.615ZM8.10997 15.3311C7.09647 15.8379 5.90353 15.8379 4.89003 15.3311L4.53226 16.0467C5.77098 16.666 7.22902 16.666 8.46774 16.0467L8.10997 15.3311ZM8.72884 11.6072C8.21164 12.8762 7.94008 14.2363 7.93346 15.615L8.73345 15.6188C8.73958 14.3427 8.99094 13.0837 9.46967 11.9092L8.72884 11.6072ZM8.46774 16.0467C8.63094 15.9651 8.73258 15.799 8.73345 15.6188L7.93346 15.615C7.93403 15.4958 8.00129 15.3855 8.10997 15.3311L8.46774 16.0467ZM4.26655 15.6188C4.26742 15.799 4.36906 15.9651 4.53226 16.0467L4.89003 15.3311C4.99871 15.3855 5.06597 15.4958 5.06654 15.615L4.26655 15.6188ZM2.92087 11.1908C3.06899 11.3039 3.1704 11.3815 3.24552 11.4439C3.32115 11.5068 3.35036 11.5383 3.36341 11.5554L3.99898 11.0695C3.93088 10.9805 3.8468 10.9034 3.75671 10.8285C3.6661 10.7533 3.54935 10.6642 3.40658 10.5551L2.92087 11.1908ZM4.27116 11.6072C4.18534 11.3967 4.11943 11.2271 3.99898 11.0695L3.36341 11.5554C3.40524 11.6101 3.43161 11.6669 3.53033 11.9092L4.27116 11.6072ZM9.59342 10.5551C9.45065 10.6642 9.33391 10.7533 9.24329 10.8285C9.1532 10.9034 9.06912 10.9805 9.00102 11.0695L9.63659 11.5554C9.64964 11.5383 9.67885 11.5068 9.75448 11.4439C9.8296 11.3815 9.93101 11.3039 10.0791 11.1908L9.59342 10.5551ZM9.46967 11.9092C9.56839 11.6669 9.59476 11.6101 9.63659 11.5554L9.00102 11.0695C8.88057 11.2271 8.81466 11.3967 8.72884 11.6072L9.46967 11.9092Z" fill="#9D7234"/>
<path d="M8.79165 12.4583V12.4583C7.32053 13.0468 5.67943 13.0468 4.20831 12.4583V12.4583" stroke="#9D7234" stroke-width="0.8"/>
</svg>
