<svg width="15" height="15" marginLeft="6" viewBox="0 0 15 15" fill="none" xmlns="http://www.w3.org/2000/svg">
<path d="M7.88892 14.3889C6.07557 14.3889 4.55041 13.7599 3.28414 12.4937C2.01786 11.2274 1.38892 9.70224 1.38892 7.88889C1.38892 6.07554 2.01786 4.55038 3.28414 3.28411C4.5199 2.04834 6.00221 1.41957 7.75832 1.38998C7.55626 1.63711 7.37793 1.90775 7.22338 2.20119C6.8666 2.87808 6.68892 3.60991 6.68892 4.38889C6.68892 5.68665 7.14886 6.80594 8.06036 7.71744C8.97186 8.62894 10.0912 9.08889 11.3889 9.08889C12.1791 9.08889 12.9151 8.91197 13.5877 8.5535C13.8767 8.3997 14.1436 8.22248 14.3878 8.02194C14.3576 9.77698 13.7289 11.2585 12.4937 12.4937C11.2274 13.7599 9.70227 14.3889 7.88892 14.3889Z" fill="white" stroke="#F69F21"/>
</svg>
