<svg width="15" height="16" viewBox="0 0 12 13" fill="none" xmlns="http://www.w3.org/2000/svg">
<path d="M5.50007 12.3789C5.72754 12.3737 5.94584 12.2881 6.11634 12.1375C6.28684 11.9868 6.39856 11.7807 6.43173 11.5556H4.53229C4.5664 11.7868 4.68335 11.9978 4.86137 12.1492C5.03939 12.3007 5.26636 12.3823 5.50007 12.3789Z" fill="#9D7234"/>
<path d="M10.7397 10.0498C10.3915 9.73933 10.0866 9.38345 9.83332 8.9917C9.55679 8.45095 9.39105 7.86042 9.34582 7.25476V5.47087C9.34436 5.25418 9.32503 5.03799 9.28805 4.82448C9.00382 4.76766 8.73066 4.66523 8.47916 4.52115C8.57503 4.82984 8.62372 5.15124 8.6236 5.47448V7.25837C8.66786 7.99721 8.8711 8.71779 9.21944 9.37087C9.46875 9.76593 9.76457 10.1296 10.1005 10.4542H0.852491C1.18847 10.1296 1.48429 9.76593 1.7336 9.37087C2.08193 8.71779 2.28517 7.99721 2.32944 7.25837V5.47087C2.32753 5.05295 2.40809 4.63876 2.56648 4.25202C2.72488 3.86527 2.95801 3.51357 3.25251 3.21705C3.54702 2.92053 3.89713 2.68501 4.28278 2.52399C4.66844 2.36296 5.08207 2.27959 5.49999 2.27865C6.11163 2.27913 6.70954 2.46001 7.21888 2.79865C7.16273 2.59245 7.13121 2.38032 7.12499 2.1667V1.9392C6.74794 1.75372 6.34287 1.63171 5.9261 1.57809V1.12309C5.9261 0.995233 5.87531 0.872614 5.7849 0.782205C5.6945 0.691797 5.57187 0.641006 5.44402 0.641006C5.31616 0.641006 5.19354 0.691797 5.10313 0.782205C5.01273 0.872614 4.96194 0.995233 4.96194 1.12309V1.59615C4.02872 1.72779 3.17464 2.19261 2.55738 2.90479C1.94011 3.61697 1.60134 4.52842 1.6036 5.47087V7.25476C1.55837 7.86042 1.39263 8.45095 1.1161 8.9917C0.867254 9.38255 0.567283 9.73839 0.224157 10.0498C0.185638 10.0836 0.154767 10.1253 0.133597 10.1719C0.112427 10.2186 0.101444 10.2693 0.101379 10.3206V10.8117C0.101379 10.9075 0.139425 10.9993 0.207146 11.067C0.274868 11.1348 0.366718 11.1728 0.462491 11.1728H10.5014C10.5972 11.1728 10.689 11.1348 10.7567 11.067C10.8244 10.9993 10.8625 10.9075 10.8625 10.8117V10.3206C10.8624 10.2693 10.8514 10.2186 10.8303 10.1719C10.8091 10.1253 10.7782 10.0836 10.7397 10.0498Z" fill="#9D7234"/>
<path d="M9.83333 3.97213C10.8305 3.97213 11.6389 3.16376 11.6389 2.16658C11.6389 1.1694 10.8305 0.361023 9.83333 0.361023C8.83615 0.361023 8.02777 1.1694 8.02777 2.16658C8.02777 3.16376 8.83615 3.97213 9.83333 3.97213Z" fill="#9D7234"/>
</svg>
