<svg width="13" height="12" viewBox="0 0 13 12" fill="none" xmlns="http://www.w3.org/2000/svg">
<path d="M12 6.50002H12.4H12ZM8.34852 8.11812L8.74245 8.04866L8.34852 8.11812ZM9.15968 8.92928L9.22914 8.53536L9.15968 8.92928ZM8.34852 7.32638L8.74245 7.39584L8.34852 7.32638ZM9.15968 6.51522L9.22914 6.90914L9.15968 6.51522ZM11.7071 4.34847L11.9899 4.06563L11.7071 4.34847ZM2.52778 1.40002L10.9524 1.40002V0.600022L2.52778 0.600022V1.40002ZM5 11.7889L10 11.7889V10.9889L5 10.9889V11.7889ZM0.6 2.5278L0.6 7.38892H1.4L1.4 2.5278H0.6ZM10 3.65558L2.52778 3.65558V4.45558L10 4.45558V3.65558ZM11.6 8.94447L11.6 9.38892H12.4L12.4 8.94447H11.6ZM11.6 6.05558V6.50002H12.4V6.05558H11.6ZM9.55555 9.34447H12V8.54447H9.55555V9.34447ZM11.6 6.50002L11.6 8.94447H12.4L12.4 6.50002H11.6ZM12 6.10002H9.55555V6.90002H12V6.10002ZM8.76984 3.65558H8.33333V4.45558H8.76984V3.65558ZM10.9889 1.43653C10.9889 2.66208 9.99539 3.65558 8.76984 3.65558V4.45558C10.4372 4.45558 11.7889 3.1039 11.7889 1.43653H10.9889ZM7.93333 7.72225C7.93333 7.91171 7.9318 8.05827 7.9546 8.18758L8.74245 8.04866C8.73486 8.00565 8.73333 7.94573 8.73333 7.72225H7.93333ZM9.55555 8.54447C9.33207 8.54447 9.27215 8.54294 9.22914 8.53536L9.09022 9.3232C9.21953 9.346 9.36609 9.34447 9.55555 9.34447V8.54447ZM7.9546 8.18758C8.0568 8.76719 8.51061 9.221 9.09022 9.3232L9.22914 8.53536C8.98074 8.49155 8.78625 8.29707 8.74245 8.04866L7.9546 8.18758ZM8.73333 7.72225C8.73333 7.49876 8.73486 7.43884 8.74245 7.39584L7.9546 7.25692C7.9318 7.38623 7.93333 7.53278 7.93333 7.72225H8.73333ZM9.55555 6.10002C9.36609 6.10002 9.21953 6.09849 9.09022 6.12129L9.22914 6.90914C9.27215 6.90156 9.33207 6.90002 9.55555 6.90002V6.10002ZM8.74245 7.39584C8.78625 7.14743 8.98074 6.95294 9.22914 6.90914L9.09022 6.12129C8.51061 6.2235 8.0568 6.6773 7.9546 7.25692L8.74245 7.39584ZM10 4.45558C10.4827 4.45558 10.8045 4.45643 11.044 4.48862C11.2719 4.51927 11.3645 4.57158 11.4243 4.63132L11.9899 4.06563C11.7568 3.83248 11.4672 3.73833 11.1506 3.69576C10.8454 3.65473 10.4601 3.65558 10 3.65558V4.45558ZM12.4 6.05558C12.4 5.59548 12.4008 5.21017 12.3598 4.90501C12.3172 4.58834 12.2231 4.29878 11.9899 4.06563L11.4243 4.63132C11.484 4.69105 11.5363 4.78365 11.567 5.01161C11.5992 5.25107 11.6 5.57287 11.6 6.05558H12.4ZM10 11.7889C10.4601 11.7889 10.8454 11.7898 11.1506 11.7487C11.4672 11.7062 11.7568 11.612 11.9899 11.3789L11.4243 10.8132C11.3645 10.8729 11.2719 10.9252 11.044 10.9559C10.8045 10.9881 10.4827 10.9889 10 10.9889V11.7889ZM11.6 9.38892C11.6 9.87163 11.5992 10.1934 11.567 10.4329C11.5363 10.6608 11.484 10.7534 11.4243 10.8132L11.9899 11.3789C12.2231 11.1457 12.3172 10.8562 12.3598 10.5395C12.4008 10.2343 12.4 9.84901 12.4 9.38892H11.6ZM5 10.9889C4.04588 10.9889 3.37053 10.9881 2.85876 10.9193C2.35848 10.852 2.07481 10.7265 1.86863 10.5203L1.30294 11.086C1.68254 11.4656 2.16317 11.6329 2.75216 11.7121C3.32963 11.7898 4.0685 11.7889 5 11.7889V10.9889ZM0.6 7.38892C0.6 8.32042 0.599151 9.05928 0.67679 9.63676C0.755978 10.2257 0.923344 10.7064 1.30294 11.086L1.86863 10.5203C1.66244 10.3141 1.53692 10.0304 1.46966 9.53016C1.40085 9.01838 1.4 8.34303 1.4 7.38892H0.6ZM0.6 2.5278C0.6 3.59248 1.4631 4.45558 2.52778 4.45558V3.65558C1.90492 3.65558 1.4 3.15066 1.4 2.5278H0.6ZM10.9524 1.40002C10.9725 1.40002 10.9889 1.41637 10.9889 1.43653H11.7889C11.7889 0.974539 11.4144 0.600022 10.9524 0.600022V1.40002ZM1.4 2.5278C1.4 1.90495 1.90492 1.40002 2.52778 1.40002V0.600022C1.4631 0.600022 0.6 1.46312 0.6 2.5278H1.4Z" fill="#9D7234"/>
</svg>
