<svg width="13" height="11" viewBox="0 0 13 11" fill="none" xmlns="http://www.w3.org/2000/svg">
<path d="M2.15789 2.73684V5.68421C2.15789 7.56983 2.15789 8.51264 2.74368 9.09842C3.32947 9.68421 4.27228 9.68421 6.1579 9.68421H6.84211C8.72772 9.68421 9.67053 9.68421 10.2563 9.09842C10.8421 8.51264 10.8421 7.56983 10.8421 5.68421V2.73684M2.15789 2.73684H10.8421M2.15789 2.73684H1.24812C1.11109 2.73684 1 2.62576 1 2.48872V2.48872C1 1.66652 1.66652 1 2.48872 1H10.5113C11.3335 1 12 1.66652 12 2.48872V2.48872C12 2.62576 11.8889 2.73684 11.7519 2.73684H10.8421" stroke="#9D7234" stroke-width="0.8"/>
<path d="M5.05273 6.78926H7.94747" stroke="#9D7234" stroke-width="0.8" stroke-linecap="round"/>
</svg>
