<svg width="13" height="13" viewBox="0 0 13 13" fill="none" xmlns="http://www.w3.org/2000/svg">
<path d="M1 4.15537C1 3.80866 1 3.6353 1.02878 3.4675C1.05679 3.30413 1.10501 3.14487 1.17233 2.99339C1.24146 2.83781 1.33762 2.69357 1.52994 2.40509V2.40509C1.86429 1.90356 2.03146 1.6528 2.25025 1.46893C2.46284 1.29026 2.7103 1.15782 2.97688 1.08004C3.25124 1 3.55262 1 4.15537 1H8.84463C9.44738 1 9.74876 1 10.0231 1.08004C10.2897 1.15782 10.5372 1.29026 10.7498 1.46893C10.9685 1.6528 11.1357 1.90356 11.4701 2.40509V2.40509C11.6624 2.69357 11.7585 2.83781 11.8277 2.99339C11.895 3.14487 11.9432 3.30413 11.9712 3.4675C12 3.6353 12 3.80866 12 4.15537V8C12 9.88562 12 10.8284 11.4142 11.4142C10.8284 12 9.88562 12 8 12H5C3.11438 12 2.17157 12 1.58579 11.4142C1 10.8284 1 9.88562 1 8V4.15537Z" stroke="#9D7234" stroke-width="0.8"/>
<path d="M1 4.66655H12" stroke="#9D7234" stroke-width="0.8" stroke-linecap="round"/>
<path d="M4.66687 4.81655C4.66687 4.73371 4.73403 4.66655 4.81687 4.66655H8.18354C8.26638 4.66655 8.33354 4.73371 8.33354 4.81655V7.53843C8.33354 7.88821 7.95195 8.10426 7.65201 7.9243L6.62883 7.31039C6.54966 7.26289 6.45075 7.26289 6.37158 7.31039L5.34839 7.9243C5.04846 8.10426 4.66687 7.88821 4.66687 7.53843V4.81655Z" stroke="#9D7234" stroke-width="0.8"/>
</svg>
