<svg width="94" height="91" viewBox="0 0 94 91" fill="none" xmlns="http://www.w3.org/2000/svg">
<path d="M28.2966 76.4564C25.8553 76.5303 23.1551 76.3084 20.196 75.7906C17.2369 75.3467 14.3518 74.5329 11.5406 73.3493C8.72941 72.1656 6.28814 70.6121 4.21675 68.6887C2.14536 66.7652 0.739781 64.3979 0 61.5868C2.66321 63.9541 6.28814 65.6925 10.8748 66.8022C15.4614 67.8379 20.122 68.3558 24.8566 68.3558C31.1448 68.3558 36.6192 67.653 41.2798 66.2474C42.6114 65.8775 44.1649 65.2857 45.9404 64.4719C47.7159 63.5842 49.4544 62.5855 51.1559 61.4758C52.8573 60.2921 54.2629 58.9975 55.3726 57.592C56.5563 56.1864 57.1481 54.7438 57.1481 53.2642C57.1481 52.2285 56.8152 51.2298 56.1494 50.2681C55.4836 49.3064 54.4109 48.3447 52.9313 47.383C52.0436 46.8651 50.749 46.3103 49.0475 45.7185C47.42 45.0527 45.6445 44.3129 43.7211 43.4991C41.7976 42.6114 39.9852 41.6127 38.2837 40.503C36.5822 39.3194 35.2136 37.9508 34.1779 36.3972C33.2162 34.7697 32.8463 32.9202 33.0682 30.8489C33.4381 27.8158 34.8067 24.8197 37.174 21.8605C39.6153 18.8274 42.6484 16.0163 46.2733 13.427C49.9722 10.7638 53.93 8.4335 58.1468 6.43609C62.4375 4.43869 66.6173 2.88515 70.6861 1.77547C74.8288 0.591824 78.4908 0 81.6718 0C84.9269 0 87.701 0.628812 89.9944 1.88644C92.3617 3.14407 93.3604 5.28943 92.9905 8.32253C92.8425 9.65414 91.9178 11.2447 90.2163 13.0941C88.5888 14.9436 86.6284 16.978 84.335 19.1973C82.0417 21.4167 79.7484 23.747 77.4551 26.1882C75.2357 28.6295 73.3863 31.1078 71.9067 33.623C70.5011 36.1383 69.8723 38.5796 70.0203 40.9469C68.8366 39.9852 67.9489 38.9125 67.3571 37.7288C66.8392 36.5452 66.5803 35.3245 66.5803 34.0669C66.5803 32.2914 66.9502 30.479 67.69 28.6295C68.4297 26.7801 69.3545 25.0416 70.4641 23.4141C71.5738 21.7126 72.6095 20.27 73.5712 19.0863C75.2727 17.015 77.1961 15.0545 79.3415 13.2051C81.4869 11.3556 83.6692 9.65414 85.8886 8.1006C85.2228 7.13889 84.0761 6.65803 82.4486 6.65803C80.7471 6.65803 78.8237 7.02792 76.6783 7.7677C74.6069 8.50748 72.6465 9.32124 70.797 10.209C69.0216 11.0227 67.7639 11.6515 67.0242 12.0954C63.8431 13.7969 60.6251 15.7203 57.37 17.8657C54.189 20.0111 51.2298 22.1934 48.4926 24.4128C45.8294 26.6321 43.6471 28.7035 41.9456 30.6269C40.3181 32.4764 39.4303 34.0299 39.2824 35.2875C39.1344 36.8411 39.8002 38.1727 41.2798 39.2824C42.7593 40.3181 44.6828 41.2798 47.0501 42.1675C49.4174 43.0553 51.7477 44.0909 54.041 45.2746C57.1481 46.8281 59.4044 48.6036 60.81 50.601C62.2156 52.5984 62.9184 54.6698 62.9184 56.8152C62.9184 59.4784 61.9197 62.1046 59.9223 64.6938C57.9249 67.2091 55.2247 69.3175 51.8217 71.019C48.7886 72.4985 45.6075 73.6452 42.2785 74.459C39.0234 75.2727 36.1013 75.7906 33.5121 76.0125C30.9968 76.3084 29.2583 76.4564 28.2966 76.4564Z" fill="#F69F21"/>
<path d="M20.2027 84.9315C20.2027 88.283 17.4857 91 14.1342 91C10.7826 91 8.06567 88.283 8.06567 84.9315C8.06567 81.5799 10.7826 78.863 14.1342 78.863C17.4857 78.863 20.2027 81.5799 20.2027 84.9315Z" fill="#F69F21"/>
<path d="M46.2106 84.9315C46.2106 88.283 43.4936 91 40.1421 91C36.7905 91 34.0735 88.283 34.0735 84.9315C34.0735 81.5799 36.7905 78.863 40.1421 78.863C43.4936 78.863 46.2106 81.5799 46.2106 84.9315Z" fill="#F69F21"/>
</svg>
