<svg width="24" height="16" viewBox="0 0 24 16" fill="none" xmlns="http://www.w3.org/2000/svg">
<path d="M10.5 6C10.5 5.50417 10.8375 5.16667 11.3333 5.16667H12C12.4583 5.16667 12.8333 5.50417 12.8333 6V8.83333H13C13.4583 8.83333 13.8333 9.17083 13.8333 9.66667C13.8333 10.125 13.4583 10.5 13 10.5H11C10.5042 10.5 10.1667 10.125 10.1667 9.66667C10.1667 9.17083 10.5042 8.83333 11 8.83333H11.1667V6.81667C10.7875 6.7375 10.5 6.40417 10.5 6ZM21.3333 0C22.8042 0 24 1.19375 24 2.66667V13.3333C24 14.8042 22.8042 16 21.3333 16H2.66667C1.19375 16 0 14.8042 0 13.3333V2.66667C0 1.19375 1.19375 0 2.66667 0H21.3333ZM5.33333 13.3333C5.33333 11.8625 4.13958 10.6667 2.66667 10.6667V13.3333H5.33333ZM2.66667 5.33333C4.13958 5.33333 5.33333 4.1375 5.33333 2.66667H2.66667V5.33333ZM21.3333 13.3333V10.6667C19.8625 10.6667 18.6667 11.8625 18.6667 13.3333H21.3333ZM21.3333 2.66667H18.6667C18.6667 4.1375 19.8625 5.33333 21.3333 5.33333V2.66667ZM12 3.33333C9.42083 3.33333 7.33333 5.42083 7.33333 8C7.33333 10.5792 9.42083 12.6667 12 12.6667C14.5792 12.6667 16.6667 10.5792 16.6667 8C16.6667 5.42083 14.5792 3.33333 12 3.33333Z" fill="#F69F21"/>
</svg>
