<svg width="24" height="23" viewBox="0 0 24 23" fill="none" xmlns="http://www.w3.org/2000/svg">
<path d="M24 7.2C24.0001 6.98222 23.9408 6.76854 23.8284 6.582L20.5776 1.164C20.3634 0.809809 20.0617 0.516687 19.7015 0.312831C19.3413 0.108974 18.9347 0.00124264 18.5208 0H5.4792C4.6416 0 3.8532 0.4464 3.4224 1.1652L0.1716 6.582C0.0592195 6.76854 -0.00011267 6.98222 1.60624e-07 7.2C1.60624e-07 8.406 0.4632 9.4968 1.2 10.3416V21.6C1.2 21.9183 1.32643 22.2235 1.55147 22.4485C1.77652 22.6736 2.08174 22.8 2.4 22.8H12C12.3183 22.8 12.6235 22.6736 12.8485 22.4485C13.0736 22.2235 13.2 21.9183 13.2 21.6V15.6H18V21.6C18 21.9183 18.1264 22.2235 18.3515 22.4485C18.5765 22.6736 18.8817 22.8 19.2 22.8H21.6C21.9183 22.8 22.2235 22.6736 22.4485 22.4485C22.6736 22.2235 22.8 21.9183 22.8 21.6V10.3416C23.5368 9.4968 24 8.406 24 7.2ZM21.5808 7.5012C21.507 8.08069 21.2245 8.61342 20.7863 8.99973C20.3481 9.38603 19.7842 9.59943 19.2 9.6C17.8764 9.6 16.8 8.5236 16.8 7.2C16.8 7.1184 16.77 7.0464 16.7532 6.9696L16.7772 6.9648L15.864 2.4H18.5208L21.5808 7.5012ZM9.6084 7.278L10.5828 2.4H13.416L14.3916 7.278C14.3496 8.5656 13.296 9.6 12 9.6C10.704 9.6 9.6504 8.5656 9.6084 7.278ZM5.4792 2.4H8.136L7.224 6.9648L7.248 6.9696C7.23 7.0464 7.2 7.1184 7.2 7.2C7.2 8.5236 6.1236 9.6 4.8 9.6C4.21583 9.59943 3.65188 9.38603 3.21367 8.99973C2.77546 8.61342 2.49302 8.08069 2.4192 7.5012L5.4792 2.4ZM9.6 16.8H4.8V13.2H9.6V16.8Z" fill="black" fill-opacity="0.31"/>
</svg>
