<svg width="26" height="25" viewBox="0 0 26 25" fill="none" xmlns="http://www.w3.org/2000/svg">
<path d="M4.83179 6.10913H22.4455C22.8024 6.10914 23.1553 6.18394 23.4815 6.3287C23.8078 6.47346 24.1 6.68497 24.3395 6.9496C24.579 7.21423 24.7603 7.5261 24.8719 7.86511C24.9835 8.20412 25.0228 8.56274 24.9873 8.91787L24.2209 16.5816C24.1579 17.2119 23.8629 17.7963 23.3932 18.2214C22.9235 18.6465 22.3126 18.8819 21.6791 18.8819H9.48109C8.89031 18.8822 8.31771 18.6776 7.86079 18.3031C7.40386 17.9287 7.09086 17.4074 6.97506 16.8281L4.83179 6.10913Z" stroke="#F69F21" stroke-width="2" stroke-linejoin="round"/>
<path d="M18.8819 23.991H21.4365M4.83184 6.10912L3.79724 1.9669C3.72805 1.69069 3.56855 1.44553 3.34407 1.27034C3.1196 1.09516 2.84302 1.00001 2.55828 1H1L4.83184 6.10912ZM8.66368 23.991H11.2182H8.66368Z" stroke="#F69F21" stroke-width="2" stroke-linecap="round" stroke-linejoin="round"/>
</svg>
